# xmcd
#
# Track frame offsets: 
#        150
#        15052
#        40352
#        56360
#        66340
#        79495
#        96390
#        111070
#        128295
#        145330
#
# Disc length: 2153 seconds
#
# Revision: 4
# Processed by: cddbd v1.5.2PL0 Copyright (c) Steve Scherf et al.
# Submitted via: ExactAudioCopy v0.99pb5
#
DISCID=7e08670a
DTITLE=Ray Stevens - Greatest Hits
DYEAR=1987
DGENRE=Humour
TTITLE0=The Streak
TTITLE1=Shriner's Convention
TTITLE2=It's Me Again Margaret
TTITLE3=Turn Your Radio On
TTITLE4=Misty
TTITLE5=The Mississippi Squirril Revival
TTITLE6=Gitarzan
TTITLE7=Ahab The Arab
TTITLE8=Along Came Jones
TTITLE9=Everything Is Beautiful
EXTD=
EXTT0=
EXTT1=
EXTT2=
EXTT3=
EXTT4=
EXTT5=
EXTT6=
EXTT7=
EXTT8=
EXTT9=
PLAYORDER=
